<svg width="512" height="512" viewBox="0 0 512 512" fill="none" xmlns="http://www.w3.org/2000/svg">
  <defs>
    <linearGradient id="tile" x1="0" y1="0" x2="512" y2="512" gradientUnits="userSpaceOnUse">
      <stop stop-color="#1a1a20" />
      <stop offset="0.55" stop-color="#0e0e12" />
      <stop offset="1" stop-color="#070709" />
    </linearGradient>
    <radialGradient id="glow" cx="0" cy="0" r="1" gradientUnits="userSpaceOnUse"
      gradientTransform="translate(180 150) rotate(45) scale(380)">
      <stop stop-color="#ffffff" stop-opacity="0.10" />
      <stop offset="1" stop-color="#ffffff" stop-opacity="0" />
    </radialGradient>
    <linearGradient id="mark" x1="120" y1="80" x2="400" y2="430" gradientUnits="userSpaceOnUse">
      <stop stop-color="#ffffff" />
      <stop offset="1" stop-color="#b4b4c0" />
    </linearGradient>
  </defs>

  <rect x="0" y="0" width="512" height="512" rx="112" fill="url(#tile)" />
  <rect x="0" y="0" width="512" height="512" rx="112" fill="url(#glow)" />
  <rect x="3" y="3" width="506" height="506" rx="109" stroke="white" stroke-opacity="0.08" stroke-width="2" />

  <g transform="translate(96 96) scale(5)">
    <circle cx="32" cy="32" r="25" stroke="url(#mark)" stroke-width="4" stroke-linecap="round"
      stroke-dasharray="118 39" opacity="0.92" />
    <path
      d="M32 14.5C33.66 14.5 35 15.84 35 17.5V30.5H40.7C42.33 30.5 43.2 32.42 42.12 33.64L33.42 43.5C32.66 44.36 31.34 44.36 30.58 43.5L21.88 33.64C20.8 32.42 21.67 30.5 23.3 30.5H29V17.5C29 15.84 30.34 14.5 32 14.5Z"
      fill="url(#mark)" />
  </g>
</svg>
